<?xml version="1.0" encoding="utf-8" ?>
<svg baseProfile="full" height="292" version="1.1" viewBox="0 0 2048 292" width="2048" xmlns="http://www.w3.org/2000/svg" xmlns:ev="http://www.w3.org/2001/xml-events" xmlns:xlink="http://www.w3.org/1999/xlink"><defs /><path d="M 966.0,97.0 966.0,235.0 1002.0,235.0 1002.0,97.0 Z" fill="#ff7300" fill-rule="evenodd" /><path d="M 1758.0,96.0 1720.0,96.0 1719.0,97.0 1717.0,108.0 1715.0,110.0 1715.0,113.0 1712.0,122.0 1712.0,126.0 1710.0,127.0 1706.0,147.0 1704.0,149.0 1704.0,152.0 1702.0,156.0 1701.0,165.0 1699.0,166.0 1699.0,169.0 1696.0,178.0 1696.0,182.0 1694.0,187.0 1694.0,191.0 1692.0,192.0 1691.0,195.0 1689.0,193.0 1687.0,182.0 1685.0,181.0 1680.0,158.0 1678.0,157.0 1676.0,145.0 1673.0,140.0 1669.0,121.0 1666.0,116.0 1665.0,108.0 1662.0,103.0 1661.0,96.0 1621.0,96.0 1621.0,100.0 1624.0,109.0 1626.0,110.0 1630.0,127.0 1632.0,128.0 1635.0,141.0 1637.0,142.0 1639.0,151.0 1641.0,155.0 1641.0,158.0 1644.0,163.0 1646.0,171.0 1648.0,173.0 1651.0,186.0 1653.0,189.0 1653.0,192.0 1655.0,193.0 1657.0,203.0 1660.0,207.0 1665.0,226.0 1667.0,228.0 1669.0,237.0 1671.0,238.0 1672.0,241.0 1671.0,242.0 1671.0,245.0 1669.0,247.0 1669.0,249.0 1667.0,252.0 1667.0,254.0 1659.0,261.0 1655.0,261.0 1654.0,262.0 1640.0,262.0 1640.0,290.0 1672.0,290.0 1673.0,289.0 1677.0,289.0 1683.0,287.0 1683.0,286.0 1687.0,284.0 1693.0,277.0 1696.0,268.0 1699.0,265.0 1701.0,257.0 1704.0,253.0 1708.0,238.0 1710.0,237.0 1710.0,234.0 1713.0,225.0 1716.0,220.0 1719.0,206.0 1722.0,203.0 1723.0,196.0 1726.0,191.0 1728.0,182.0 1730.0,179.0 1731.0,172.0 1733.0,171.0 1735.0,161.0 1738.0,157.0 1742.0,141.0 1744.0,140.0 1745.0,133.0 1747.0,127.0 1749.0,125.0 1752.0,116.0 1753.0,109.0 1755.0,108.0 Z" fill="#ff7300" fill-rule="evenodd" /><path d="M 1037.0,96.0 1037.0,235.0 1074.0,235.0 1074.0,143.0 1075.0,142.0 1075.0,137.0 1077.0,136.0 1078.0,132.0 1081.0,129.0 1086.0,127.0 1087.0,125.0 1092.0,125.0 1093.0,124.0 1107.0,125.0 1108.0,127.0 1115.0,132.0 1117.0,137.0 1117.0,142.0 1119.0,144.0 1119.0,235.0 1155.0,235.0 1155.0,144.0 1160.0,132.0 1166.0,128.0 1168.0,125.0 1171.0,125.0 1172.0,124.0 1185.0,124.0 1188.0,125.0 1196.0,132.0 1199.0,141.0 1199.0,234.0 1200.0,235.0 1237.0,235.0 1237.0,130.0 1236.0,129.0 1236.0,124.0 1234.0,122.0 1232.0,114.0 1225.0,105.0 1219.0,100.0 1214.0,97.0 1204.0,95.0 1203.0,93.0 1183.0,93.0 1182.0,95.0 1177.0,95.0 1166.0,99.0 1165.0,101.0 1162.0,102.0 1160.0,105.0 1155.0,109.0 1154.0,112.0 1150.0,115.0 1148.0,112.0 1148.0,110.0 1143.0,105.0 1140.0,100.0 1132.0,96.0 1125.0,95.0 1122.0,93.0 1103.0,93.0 1101.0,95.0 1097.0,95.0 1088.0,98.0 1085.0,102.0 1083.0,102.0 1074.0,114.0 1073.0,113.0 1073.0,97.0 1072.0,96.0 Z" fill="#ff7300" fill-rule="evenodd" /><path d="M 1949.0,97.0 1943.0,100.0 1939.0,104.0 1937.0,104.0 1937.0,105.0 1931.0,110.0 1924.0,122.0 1923.0,129.0 1922.0,130.0 1922.0,148.0 1925.0,158.0 1929.0,163.0 1933.0,165.0 1935.0,168.0 1944.0,171.0 1945.0,173.0 1947.0,174.0 1950.0,174.0 1958.0,177.0 1962.0,177.0 1963.0,179.0 1981.0,182.0 1987.0,185.0 2001.0,188.0 2002.0,190.0 2007.0,194.0 2008.0,196.0 2008.0,202.0 2006.0,205.0 1995.0,211.0 1973.0,211.0 1972.0,210.0 1968.0,210.0 1967.0,208.0 1965.0,208.0 1958.0,204.0 1955.0,197.0 1955.0,192.0 1953.0,190.0 1918.0,190.0 1917.0,191.0 1917.0,197.0 1918.0,198.0 1918.0,203.0 1920.0,210.0 1922.0,211.0 1922.0,213.0 1926.0,220.0 1928.0,221.0 1932.0,226.0 1936.0,228.0 1937.0,230.0 1953.0,237.0 1964.0,238.0 1965.0,239.0 1997.0,239.0 1998.0,238.0 2005.0,238.0 2006.0,237.0 2013.0,236.0 2022.0,231.0 2024.0,231.0 2026.0,228.0 2028.0,228.0 2036.0,220.0 2037.0,217.0 2039.0,216.0 2041.0,213.0 2041.0,210.0 2044.0,201.0 2044.0,186.0 2040.0,173.0 2035.0,167.0 2030.0,164.0 2028.0,161.0 2026.0,161.0 2024.0,159.0 2020.0,158.0 2019.0,156.0 2006.0,153.0 1995.0,149.0 1980.0,147.0 1979.0,145.0 1970.0,144.0 1962.0,141.0 1961.0,139.0 1958.0,137.0 1957.0,131.0 1960.0,125.0 1965.0,122.0 1967.0,122.0 1969.0,120.0 1989.0,120.0 1991.0,122.0 1997.0,124.0 2001.0,130.0 2003.0,131.0 2004.0,139.0 2041.0,139.0 2039.0,125.0 2037.0,123.0 2035.0,116.0 2032.0,113.0 2031.0,110.0 2027.0,107.0 2024.0,103.0 2022.0,103.0 2018.0,99.0 2005.0,95.0 2001.0,95.0 1998.0,93.0 1993.0,93.0 1992.0,92.0 1968.0,92.0 1967.0,93.0 1962.0,93.0 1959.0,95.0 Z" fill="#ff7300" fill-rule="evenodd" /><path d="M 1788.0,107.0 1782.0,114.0 1781.0,118.0 1777.0,125.0 1776.0,132.0 1775.0,133.0 1775.0,141.0 1810.0,141.0 1812.0,133.0 1817.0,126.0 1820.0,124.0 1823.0,124.0 1828.0,122.0 1839.0,122.0 1840.0,123.0 1846.0,123.0 1852.0,125.0 1856.0,130.0 1857.0,140.0 1853.0,145.0 1851.0,145.0 1851.0,146.0 1848.0,148.0 1839.0,149.0 1838.0,150.0 1824.0,151.0 1819.0,153.0 1813.0,153.0 1812.0,154.0 1807.0,154.0 1806.0,155.0 1799.0,156.0 1798.0,158.0 1795.0,158.0 1790.0,161.0 1788.0,161.0 1786.0,164.0 1781.0,167.0 1776.0,173.0 1775.0,177.0 1773.0,178.0 1771.0,184.0 1771.0,190.0 1770.0,191.0 1771.0,211.0 1772.0,212.0 1772.0,215.0 1775.0,218.0 1775.0,220.0 1777.0,223.0 1785.0,231.0 1788.0,233.0 1790.0,233.0 1791.0,235.0 1800.0,238.0 1805.0,238.0 1806.0,239.0 1822.0,239.0 1823.0,238.0 1828.0,238.0 1829.0,237.0 1836.0,236.0 1850.0,226.0 1852.0,226.0 1856.0,221.0 1858.0,222.0 1860.0,226.0 1860.0,230.0 1862.0,235.0 1901.0,235.0 1901.0,229.0 1896.0,225.0 1894.0,221.0 1894.0,131.0 1893.0,130.0 1893.0,123.0 1887.0,110.0 1884.0,108.0 1881.0,104.0 1879.0,104.0 1872.0,99.0 1858.0,95.0 1853.0,95.0 1850.0,93.0 1839.0,93.0 1838.0,92.0 1819.0,93.0 1816.0,95.0 1807.0,96.0 1797.0,100.0 Z M 1857.0,169.0 1857.0,186.0 1856.0,187.0 1856.0,192.0 1853.0,200.0 1851.0,201.0 1847.0,206.0 1845.0,206.0 1842.0,208.0 1841.0,210.0 1838.0,210.0 1833.0,212.0 1818.0,212.0 1815.0,211.0 1813.0,208.0 1808.0,204.0 1807.0,191.0 1809.0,186.0 1815.0,180.0 1819.0,179.0 1820.0,177.0 1846.0,173.0 1848.0,171.0 1853.0,170.0 1856.0,168.0 Z" fill="#ff7300" fill-rule="evenodd" /><path d="M 1494.0,109.0 1490.0,116.0 1490.0,118.0 1487.0,121.0 1485.0,128.0 1485.0,132.0 1483.0,134.0 1483.0,141.0 1518.0,141.0 1519.0,140.0 1519.0,136.0 1524.0,128.0 1529.0,124.0 1536.0,123.0 1537.0,122.0 1548.0,122.0 1549.0,123.0 1554.0,123.0 1560.0,125.0 1565.0,130.0 1566.0,140.0 1562.0,145.0 1560.0,145.0 1560.0,146.0 1557.0,148.0 1548.0,149.0 1547.0,150.0 1540.0,150.0 1539.0,151.0 1532.0,151.0 1528.0,153.0 1521.0,153.0 1520.0,154.0 1508.0,156.0 1507.0,158.0 1504.0,158.0 1497.0,161.0 1495.0,164.0 1493.0,164.0 1490.0,168.0 1486.0,171.0 1485.0,175.0 1483.0,176.0 1480.0,184.0 1480.0,188.0 1479.0,189.0 1479.0,206.0 1480.0,207.0 1480.0,212.0 1486.0,224.0 1489.0,226.0 1493.0,231.0 1495.0,231.0 1500.0,235.0 1509.0,238.0 1514.0,238.0 1515.0,239.0 1530.0,239.0 1531.0,238.0 1537.0,238.0 1544.0,236.0 1553.0,231.0 1555.0,228.0 1557.0,228.0 1562.0,225.0 1566.0,220.0 1567.0,221.0 1568.0,230.0 1571.0,235.0 1610.0,235.0 1610.0,229.0 1604.0,225.0 1604.0,222.0 1603.0,221.0 1603.0,133.0 1602.0,132.0 1602.0,125.0 1600.0,123.0 1600.0,120.0 1596.0,110.0 1581.0,99.0 1578.0,99.0 1575.0,97.0 1571.0,97.0 1566.0,95.0 1561.0,95.0 1559.0,93.0 1548.0,93.0 1547.0,92.0 1527.0,93.0 1525.0,95.0 1516.0,96.0 1505.0,100.0 1504.0,102.0 Z M 1566.0,169.0 1565.0,192.0 1563.0,198.0 1561.0,199.0 1560.0,202.0 1557.0,205.0 1554.0,206.0 1549.0,210.0 1542.0,212.0 1527.0,212.0 1524.0,211.0 1519.0,207.0 1517.0,204.0 1517.0,202.0 1515.0,200.0 1515.0,191.0 1517.0,190.0 1517.0,187.0 1521.0,182.0 1526.0,179.0 1528.0,179.0 1529.0,177.0 1532.0,176.0 1550.0,174.0 1551.0,173.0 1554.0,173.0 1556.0,171.0 1562.0,170.0 1565.0,168.0 Z" fill="#ff7300" fill-rule="evenodd" /><path d="M 1281.0,104.0 1281.0,105.0 1275.0,110.0 1269.0,120.0 1268.0,126.0 1266.0,127.0 1266.0,131.0 1265.0,132.0 1265.0,141.0 1300.0,141.0 1302.0,132.0 1310.0,124.0 1318.0,123.0 1319.0,122.0 1330.0,122.0 1331.0,123.0 1336.0,123.0 1342.0,125.0 1347.0,131.0 1348.0,138.0 1347.0,141.0 1342.0,145.0 1341.0,147.0 1335.0,149.0 1321.0,150.0 1320.0,151.0 1314.0,151.0 1309.0,153.0 1303.0,153.0 1302.0,154.0 1290.0,156.0 1289.0,158.0 1286.0,158.0 1277.0,162.0 1276.0,164.0 1271.0,167.0 1264.0,177.0 1262.0,183.0 1262.0,187.0 1260.0,191.0 1260.0,205.0 1262.0,208.0 1262.0,213.0 1266.0,222.0 1267.0,222.0 1276.0,232.0 1280.0,233.0 1281.0,235.0 1283.0,235.0 1286.0,237.0 1296.0,238.0 1297.0,239.0 1312.0,239.0 1313.0,238.0 1323.0,237.0 1326.0,235.0 1328.0,235.0 1329.0,233.0 1335.0,231.0 1337.0,228.0 1340.0,227.0 1348.0,220.0 1349.0,221.0 1349.0,227.0 1350.0,228.0 1351.0,235.0 1392.0,235.0 1392.0,229.0 1389.0,228.0 1384.0,221.0 1384.0,211.0 1383.0,210.0 1383.0,125.0 1382.0,124.0 1382.0,120.0 1377.0,110.0 1369.0,103.0 1359.0,98.0 1352.0,96.0 1348.0,96.0 1347.0,95.0 1342.0,95.0 1341.0,93.0 1329.0,93.0 1328.0,92.0 1309.0,93.0 1307.0,95.0 1302.0,95.0 1288.0,99.0 1284.0,103.0 Z M 1348.0,169.0 1347.0,191.0 1344.0,195.0 1344.0,198.0 1342.0,200.0 1342.0,202.0 1337.0,206.0 1324.0,212.0 1308.0,212.0 1304.0,210.0 1300.0,205.0 1298.0,204.0 1297.0,202.0 1297.0,189.0 1303.0,181.0 1309.0,179.0 1310.0,177.0 1336.0,173.0 1337.0,171.0 1341.0,171.0 1347.0,168.0 Z" fill="#ff7300" fill-rule="evenodd" /><path d="M 1417.0,47.0 1417.0,235.0 1453.0,235.0 1453.0,47.0 Z" fill="#ff7300" fill-rule="evenodd" /><path d="M 807.0,47.0 806.0,48.0 806.0,234.0 807.0,235.0 842.0,235.0 842.0,152.0 843.0,151.0 843.0,145.0 845.0,144.0 846.0,138.0 849.0,133.0 854.0,128.0 856.0,128.0 858.0,125.0 865.0,123.0 879.0,123.0 886.0,127.0 889.0,131.0 891.0,132.0 894.0,142.0 894.0,235.0 931.0,235.0 932.0,234.0 932.0,149.0 931.0,148.0 931.0,127.0 930.0,126.0 930.0,122.0 928.0,121.0 927.0,116.0 924.0,110.0 912.0,99.0 910.0,99.0 907.0,97.0 898.0,95.0 896.0,93.0 877.0,92.0 876.0,93.0 871.0,93.0 869.0,95.0 866.0,95.0 860.0,97.0 856.0,100.0 854.0,100.0 843.0,112.0 842.0,111.0 842.0,47.0 Z" fill="#ff7300" fill-rule="evenodd" /><path d="M 874.0,194.0 875.0,195.0 875.0,200.0 878.0,204.0 879.0,211.0 884.0,218.0 884.0,220.0 883.0,214.0 879.0,206.0 879.0,203.0 876.0,199.0 875.0,194.0 Z" fill="#2b2a29" fill-rule="evenodd" /><path d="M 869.0,185.0 869.0,190.0 868.0,191.0 870.0,195.0 868.0,197.0 867.0,206.0 863.0,210.0 861.0,218.0 857.0,223.0 856.0,222.0 856.0,216.0 855.0,217.0 850.0,230.0 857.0,230.0 858.0,227.0 862.0,222.0 864.0,215.0 869.0,206.0 876.0,216.0 878.0,225.0 877.0,226.0 875.0,224.0 870.0,213.0 870.0,216.0 871.0,217.0 869.0,223.0 871.0,227.0 870.0,228.0 869.0,227.0 868.0,230.0 887.0,230.0 879.0,223.0 876.0,218.0 875.0,209.0 873.0,208.0 874.0,207.0 873.0,208.0 871.0,206.0 870.0,201.0 871.0,200.0 873.0,204.0 873.0,202.0 872.0,201.0 872.0,196.0 871.0,195.0 871.0,191.0 Z M 877.0,226.0 878.0,225.0 879.0,226.0 878.0,227.0 Z M 855.0,223.0 856.0,222.0 857.0,223.0 856.0,224.0 Z M 869.0,200.0 870.0,199.0 871.0,200.0 870.0,201.0 Z" fill="#2b2a29" fill-rule="evenodd" /><path d="M 593.0,98.0 590.0,100.0 589.0,102.0 583.0,104.0 581.0,107.0 575.0,111.0 568.0,120.0 567.0,124.0 565.0,125.0 562.0,132.0 562.0,135.0 560.0,136.0 559.0,139.0 558.0,150.0 557.0,151.0 557.0,183.0 558.0,184.0 558.0,190.0 559.0,191.0 560.0,198.0 562.0,199.0 562.0,202.0 565.0,208.0 568.0,211.0 568.0,213.0 574.0,220.0 577.0,221.0 578.0,223.0 583.0,227.0 585.0,227.0 590.0,231.0 596.0,233.0 598.0,235.0 604.0,237.0 608.0,237.0 609.0,238.0 614.0,238.0 615.0,239.0 640.0,239.0 641.0,238.0 646.0,238.0 647.0,237.0 651.0,237.0 655.0,235.0 658.0,235.0 659.0,233.0 661.0,233.0 673.0,226.0 680.0,218.0 685.0,214.0 689.0,205.0 692.0,201.0 693.0,194.0 655.0,194.0 653.0,199.0 650.0,201.0 647.0,205.0 645.0,205.0 640.0,208.0 637.0,208.0 635.0,210.0 620.0,210.0 618.0,208.0 615.0,208.0 603.0,202.0 600.0,198.0 600.0,196.0 596.0,192.0 596.0,189.0 594.0,184.0 594.0,176.0 595.0,175.0 695.0,175.0 695.0,152.0 693.0,148.0 692.0,138.0 689.0,133.0 687.0,126.0 684.0,120.0 681.0,118.0 681.0,116.0 678.0,114.0 669.0,104.0 667.0,104.0 661.0,99.0 648.0,95.0 644.0,95.0 642.0,93.0 636.0,93.0 635.0,92.0 616.0,92.0 615.0,93.0 609.0,93.0 607.0,95.0 603.0,95.0 596.0,98.0 Z M 595.0,145.0 601.0,133.0 605.0,129.0 609.0,127.0 610.0,125.0 616.0,123.0 635.0,123.0 641.0,125.0 642.0,127.0 646.0,129.0 650.0,134.0 653.0,136.0 656.0,145.0 656.0,150.0 655.0,151.0 596.0,151.0 595.0,150.0 Z" fill="#2b2a29" fill-rule="evenodd" /><path d="M 520.0,103.0 517.0,102.0 515.0,99.0 504.0,95.0 500.0,95.0 498.0,93.0 489.0,93.0 488.0,92.0 473.0,93.0 472.0,95.0 462.0,97.0 455.0,102.0 449.0,108.0 444.0,115.0 443.0,114.0 443.0,96.0 409.0,96.0 409.0,235.0 445.0,235.0 445.0,154.0 446.0,153.0 446.0,145.0 448.0,141.0 448.0,138.0 449.0,136.0 451.0,135.0 452.0,132.0 455.0,129.0 458.0,128.0 460.0,125.0 467.0,124.0 468.0,123.0 479.0,123.0 485.0,125.0 493.0,131.0 496.0,139.0 496.0,234.0 497.0,235.0 534.0,235.0 534.0,131.0 533.0,130.0 532.0,120.0 531.0,118.0 529.0,117.0 529.0,114.0 527.0,112.0 527.0,110.0 524.0,108.0 Z" fill="#2b2a29" fill-rule="evenodd" /><path d="M 269.0,108.0 261.0,121.0 261.0,124.0 259.0,126.0 258.0,133.0 257.0,134.0 257.0,141.0 293.0,141.0 293.0,137.0 295.0,131.0 297.0,130.0 301.0,125.0 306.0,123.0 311.0,123.0 312.0,122.0 322.0,122.0 323.0,123.0 329.0,123.0 334.0,125.0 340.0,132.0 340.0,140.0 334.0,147.0 331.0,147.0 327.0,149.0 313.0,150.0 312.0,151.0 307.0,151.0 302.0,153.0 295.0,153.0 294.0,154.0 281.0,156.0 280.0,158.0 269.0,162.0 267.0,165.0 263.0,167.0 261.0,171.0 258.0,173.0 254.0,185.0 254.0,191.0 252.0,194.0 252.0,202.0 254.0,205.0 255.0,214.0 257.0,220.0 260.0,224.0 269.0,232.0 274.0,235.0 283.0,238.0 288.0,238.0 289.0,239.0 305.0,239.0 306.0,238.0 311.0,238.0 318.0,236.0 322.0,233.0 326.0,232.0 331.0,227.0 337.0,224.0 340.0,220.0 341.0,221.0 342.0,230.0 344.0,235.0 384.0,235.0 384.0,229.0 379.0,226.0 378.0,222.0 376.0,220.0 376.0,130.0 375.0,129.0 374.0,119.0 371.0,112.0 365.0,107.0 362.0,103.0 358.0,102.0 357.0,100.0 345.0,96.0 335.0,95.0 333.0,93.0 322.0,93.0 321.0,92.0 301.0,93.0 300.0,95.0 295.0,95.0 294.0,96.0 286.0,97.0 279.0,100.0 278.0,102.0 275.0,103.0 Z M 340.0,169.0 340.0,187.0 339.0,188.0 339.0,193.0 337.0,194.0 334.0,202.0 326.0,208.0 324.0,208.0 323.0,210.0 320.0,210.0 316.0,212.0 301.0,212.0 296.0,210.0 295.0,208.0 291.0,205.0 289.0,199.0 289.0,192.0 291.0,186.0 293.0,185.0 296.0,181.0 301.0,179.0 302.0,177.0 328.0,173.0 330.0,171.0 333.0,171.0 339.0,168.0 Z" fill="#2b2a29" fill-rule="evenodd" /><path d="M 724.0,58.0 724.0,96.0 723.0,97.0 705.0,97.0 705.0,123.0 723.0,123.0 724.0,124.0 724.0,217.0 725.0,218.0 725.0,221.0 727.0,222.0 728.0,226.0 731.0,228.0 733.0,231.0 739.0,233.0 740.0,235.0 749.0,236.0 750.0,237.0 781.0,237.0 783.0,236.0 783.0,209.0 782.0,208.0 779.0,209.0 764.0,208.0 761.0,205.0 760.0,202.0 760.0,124.0 761.0,123.0 783.0,123.0 783.0,97.0 761.0,97.0 760.0,96.0 760.0,58.0 Z" fill="#2b2a29" fill-rule="evenodd" /><path d="M 190.0,47.0 190.0,234.0 191.0,235.0 226.0,235.0 227.0,234.0 227.0,47.0 Z" fill="#2b2a29" fill-rule="evenodd" /><path d="M 133.0,52.0 123.0,50.0 122.0,48.0 115.0,48.0 114.0,47.0 21.0,47.0 21.0,234.0 22.0,235.0 60.0,235.0 60.0,169.0 61.0,168.0 108.0,168.0 109.0,166.0 124.0,165.0 125.0,164.0 132.0,163.0 138.0,159.0 144.0,157.0 144.0,156.0 155.0,146.0 155.0,144.0 159.0,136.0 159.0,133.0 161.0,131.0 162.0,123.0 163.0,122.0 163.0,92.0 162.0,91.0 162.0,87.0 159.0,82.0 158.0,76.0 151.0,65.0 149.0,64.0 144.0,58.0 138.0,56.0 Z M 60.0,82.0 62.0,80.0 99.0,80.0 100.0,81.0 110.0,82.0 116.0,85.0 119.0,88.0 124.0,97.0 124.0,117.0 120.0,125.0 115.0,130.0 105.0,134.0 61.0,134.0 60.0,133.0 Z" fill="#2b2a29" fill-rule="evenodd" /><path d="M 978.0,8.0 977.0,9.0 975.0,8.0 972.0,11.0 972.0,12.0 973.0,11.0 976.0,12.0 973.0,16.0 971.0,16.0 970.0,14.0 968.0,16.0 968.0,19.0 970.0,21.0 967.0,22.0 969.0,23.0 967.0,25.0 965.0,25.0 966.0,25.0 969.0,29.0 967.0,30.0 966.0,32.0 964.0,31.0 964.0,34.0 966.0,36.0 963.0,37.0 961.0,41.0 962.0,44.0 966.0,45.0 968.0,48.0 971.0,46.0 974.0,51.0 973.0,52.0 973.0,58.0 972.0,59.0 973.0,61.0 971.0,62.0 970.0,64.0 972.0,65.0 968.0,67.0 964.0,76.0 964.0,79.0 962.0,83.0 967.0,87.0 970.0,87.0 971.0,86.0 967.0,81.0 969.0,76.0 976.0,66.0 977.0,60.0 979.0,56.0 981.0,56.0 982.0,58.0 985.0,60.0 986.0,85.0 992.0,84.0 995.0,82.0 994.0,80.0 991.0,80.0 990.0,79.0 990.0,72.0 989.0,71.0 990.0,69.0 989.0,66.0 990.0,65.0 990.0,57.0 989.0,57.0 988.0,55.0 986.0,56.0 984.0,55.0 986.0,52.0 985.0,50.0 983.0,49.0 984.0,48.0 983.0,47.0 984.0,43.0 990.0,38.0 992.0,38.0 993.0,39.0 992.0,41.0 993.0,41.0 992.0,34.0 991.0,34.0 990.0,36.0 988.0,36.0 986.0,33.0 986.0,26.0 989.0,24.0 991.0,20.0 993.0,21.0 992.0,19.0 992.0,14.0 988.0,11.0 985.0,14.0 984.0,13.0 985.0,17.0 982.0,18.0 980.0,16.0 981.0,13.0 Z M 991.0,83.0 992.0,82.0 993.0,83.0 992.0,84.0 Z M 988.0,62.0 989.0,61.0 990.0,63.0 989.0,64.0 Z M 986.0,60.0 988.0,62.0 986.0,65.0 985.0,64.0 985.0,61.0 Z M 987.0,57.0 989.0,58.0 989.0,61.0 988.0,62.0 986.0,60.0 Z M 982.0,51.0 983.0,52.0 982.0,55.0 981.0,54.0 Z M 979.0,49.0 980.0,51.0 978.0,52.0 977.0,51.0 Z M 973.0,47.0 977.0,44.0 979.0,47.0 980.0,45.0 983.0,50.0 981.0,52.0 979.0,49.0 978.0,50.0 977.0,48.0 974.0,48.0 Z M 982.0,43.0 983.0,44.0 982.0,47.0 981.0,46.0 Z M 971.0,43.0 972.0,42.0 973.0,43.0 972.0,44.0 Z M 983.0,38.0 986.0,40.0 984.0,43.0 981.0,41.0 Z M 979.0,38.0 981.0,37.0 982.0,40.0 981.0,41.0 Z M 964.0,38.0 965.0,37.0 966.0,38.0 965.0,39.0 Z M 967.0,34.0 968.0,33.0 971.0,33.0 972.0,35.0 971.0,36.0 970.0,35.0 968.0,36.0 Z M 965.0,34.0 966.0,33.0 967.0,34.0 966.0,35.0 Z M 973.0,32.0 974.0,30.0 976.0,31.0 974.0,33.0 Z M 968.0,32.0 969.0,29.0 972.0,31.0 970.0,33.0 Z M 974.0,28.0 975.0,27.0 976.0,29.0 975.0,30.0 Z M 976.0,26.0 977.0,25.0 978.0,27.0 977.0,28.0 Z M 986.0,24.0 987.0,23.0 988.0,24.0 987.0,25.0 Z M 977.0,25.0 978.0,23.0 980.0,24.0 978.0,26.0 Z M 975.0,23.0 976.0,22.0 977.0,24.0 976.0,25.0 Z M 971.0,21.0 972.0,20.0 973.0,21.0 972.0,22.0 Z M 982.0,20.0 983.0,19.0 984.0,20.0 983.0,21.0 Z M 979.0,20.0 980.0,19.0 981.0,20.0 980.0,21.0 Z M 976.0,20.0 977.0,19.0 978.0,20.0 977.0,21.0 Z M 972.0,20.0 973.0,19.0 974.0,20.0 973.0,21.0 Z M 984.0,19.0 985.0,18.0 987.0,20.0 985.0,21.0 Z M 981.0,19.0 982.0,18.0 983.0,19.0 982.0,20.0 Z M 990.0,18.0 991.0,17.0 992.0,18.0 991.0,19.0 Z M 979.0,18.0 980.0,17.0 981.0,18.0 980.0,19.0 Z M 986.0,16.0 988.0,15.0 990.0,17.0 988.0,18.0 Z" fill="#2b2a29" fill-rule="evenodd" /><path d="M 832.0,238.0 832.0,241.0 833.0,242.0 841.0,242.0 842.0,241.0 842.0,238.0 Z" fill="#ffffff" fill-rule="evenodd" /><path d="M 845.0,147.0 845.0,253.0 892.0,253.0 892.0,147.0 Z M 868.0,211.0 869.0,210.0 870.0,211.0 869.0,212.0 Z M 874.0,193.0 876.0,194.0 876.0,196.0 880.0,203.0 881.0,209.0 884.0,213.0 884.0,216.0 886.0,221.0 886.0,224.0 885.0,225.0 883.0,219.0 879.0,214.0 877.0,205.0 874.0,201.0 874.0,197.0 873.0,196.0 Z M 869.0,183.0 872.0,189.0 872.0,194.0 874.0,200.0 874.0,205.0 873.0,206.0 871.0,202.0 872.0,205.0 875.0,206.0 877.0,212.0 877.0,217.0 881.0,224.0 885.0,227.0 886.0,224.0 888.0,230.0 887.0,231.0 867.0,231.0 866.0,230.0 869.0,225.0 867.0,222.0 869.0,219.0 869.0,213.0 870.0,212.0 876.0,223.0 875.0,217.0 869.0,208.0 865.0,216.0 864.0,221.0 860.0,226.0 859.0,229.0 857.0,231.0 850.0,231.0 849.0,228.0 853.0,218.0 856.0,214.0 857.0,215.0 857.0,222.0 860.0,218.0 861.0,211.0 865.0,207.0 867.0,200.0 867.0,196.0 869.0,195.0 867.0,192.0 867.0,187.0 Z" fill="#ffffff" fill-rule="evenodd" /><path d="M 954.0,0.0 954.0,96.0 1006.0,96.0 1006.0,0.0 Z M 978.0,78.0 979.0,79.0 979.0,86.0 977.0,89.0 976.0,88.0 976.0,85.0 Z M 998.0,77.0 999.0,78.0 999.0,81.0 998.0,82.0 996.0,79.0 Z M 979.0,70.0 980.0,71.0 980.0,78.0 979.0,79.0 978.0,78.0 978.0,71.0 Z M 997.0,68.0 998.0,69.0 998.0,76.0 997.0,77.0 996.0,76.0 996.0,69.0 Z M 996.0,61.0 997.0,62.0 997.0,67.0 996.0,68.0 995.0,67.0 995.0,62.0 Z M 995.0,51.0 996.0,52.0 996.0,60.0 995.0,61.0 994.0,60.0 994.0,52.0 Z M 994.0,44.0 995.0,45.0 995.0,51.0 994.0,52.0 993.0,51.0 993.0,45.0 Z M 978.0,7.0 982.0,12.0 983.0,15.0 982.0,17.0 983.0,16.0 982.0,13.0 983.0,12.0 985.0,13.0 986.0,11.0 989.0,10.0 993.0,13.0 993.0,18.0 995.0,21.0 994.0,22.0 991.0,21.0 990.0,24.0 987.0,26.0 988.0,27.0 988.0,31.0 987.0,32.0 988.0,35.0 991.0,33.0 992.0,30.0 994.0,31.0 994.0,34.0 995.0,35.0 994.0,36.0 994.0,43.0 993.0,44.0 991.0,41.0 992.0,39.0 991.0,41.0 989.0,40.0 988.0,42.0 986.0,42.0 984.0,46.0 985.0,48.0 984.0,49.0 985.0,48.0 986.0,49.0 986.0,51.0 988.0,52.0 987.0,54.0 991.0,57.0 991.0,78.0 994.0,79.0 996.0,82.0 992.0,85.0 989.0,85.0 988.0,86.0 985.0,85.0 985.0,80.0 984.0,79.0 984.0,61.0 982.0,59.0 982.0,65.0 980.0,71.0 979.0,70.0 980.0,57.0 979.0,57.0 977.0,67.0 972.0,75.0 970.0,76.0 970.0,80.0 968.0,81.0 972.0,86.0 970.0,88.0 966.0,88.0 965.0,86.0 961.0,84.0 961.0,82.0 966.0,68.0 971.0,61.0 972.0,48.0 969.0,48.0 967.0,50.0 966.0,47.0 961.0,44.0 960.0,40.0 963.0,36.0 965.0,36.0 963.0,34.0 963.0,31.0 966.0,30.0 966.0,26.0 964.0,25.0 966.0,23.0 967.0,24.0 966.0,22.0 968.0,21.0 966.0,18.0 967.0,15.0 971.0,12.0 971.0,10.0 974.0,7.0 Z" fill="#ffffff" fill-rule="evenodd" /><path d="M 875.0,195.0 875.0,200.0 878.0,204.0 879.0,211.0 883.0,217.0 883.0,214.0 879.0,207.0 879.0,203.0 877.0,201.0 Z" fill="#000000" fill-rule="evenodd" /><path d="M 869.0,185.0 869.0,193.0 870.0,195.0 868.0,198.0 867.0,206.0 863.0,210.0 862.0,216.0 857.0,223.0 856.0,222.0 856.0,216.0 855.0,217.0 850.0,230.0 857.0,230.0 858.0,227.0 862.0,222.0 865.0,212.0 869.0,206.0 876.0,216.0 878.0,225.0 877.0,226.0 875.0,224.0 870.0,213.0 871.0,218.0 869.0,221.0 869.0,223.0 871.0,227.0 870.0,228.0 869.0,227.0 868.0,230.0 886.0,230.0 878.0,222.0 876.0,218.0 875.0,210.0 873.0,208.0 874.0,207.0 873.0,208.0 871.0,206.0 870.0,201.0 871.0,200.0 873.0,203.0 872.0,201.0 872.0,197.0 871.0,196.0 871.0,192.0 Z M 877.0,226.0 878.0,225.0 879.0,226.0 878.0,227.0 Z M 855.0,223.0 856.0,222.0 857.0,223.0 856.0,224.0 Z M 869.0,200.0 870.0,199.0 871.0,200.0 870.0,201.0 Z M 869.0,196.0 870.0,195.0 871.0,196.0 870.0,197.0 Z" fill="#000000" fill-rule="evenodd" /><path d="M 594.0,98.0 590.0,100.0 589.0,102.0 587.0,102.0 582.0,105.0 581.0,107.0 575.0,111.0 568.0,120.0 567.0,124.0 565.0,125.0 564.0,129.0 562.0,132.0 562.0,135.0 560.0,136.0 560.0,139.0 558.0,144.0 558.0,151.0 557.0,152.0 557.0,183.0 558.0,184.0 558.0,190.0 559.0,191.0 560.0,198.0 562.0,199.0 562.0,202.0 568.0,211.0 568.0,213.0 574.0,218.0 574.0,220.0 577.0,221.0 580.0,225.0 585.0,227.0 590.0,231.0 596.0,233.0 598.0,235.0 601.0,235.0 604.0,237.0 608.0,237.0 609.0,238.0 614.0,238.0 615.0,239.0 640.0,239.0 641.0,238.0 651.0,237.0 655.0,235.0 658.0,235.0 659.0,233.0 661.0,233.0 668.0,228.0 673.0,226.0 676.0,222.0 685.0,214.0 689.0,205.0 692.0,201.0 693.0,194.0 655.0,194.0 653.0,199.0 650.0,201.0 647.0,205.0 645.0,205.0 640.0,208.0 637.0,208.0 635.0,210.0 620.0,210.0 618.0,208.0 612.0,207.0 607.0,204.0 605.0,204.0 600.0,198.0 600.0,196.0 596.0,192.0 593.0,176.0 594.0,175.0 695.0,175.0 695.0,152.0 693.0,148.0 692.0,138.0 688.0,131.0 687.0,126.0 684.0,120.0 681.0,118.0 681.0,116.0 680.0,116.0 669.0,104.0 667.0,104.0 661.0,99.0 652.0,96.0 644.0,95.0 642.0,93.0 635.0,93.0 634.0,92.0 633.0,93.0 632.0,92.0 627.0,92.0 626.0,93.0 625.0,92.0 617.0,92.0 616.0,93.0 609.0,93.0 608.0,95.0 604.0,95.0 600.0,97.0 Z M 594.0,149.0 596.0,142.0 599.0,138.0 599.0,136.0 605.0,129.0 610.0,125.0 616.0,123.0 622.0,123.0 623.0,122.0 624.0,123.0 625.0,122.0 635.0,123.0 641.0,125.0 642.0,127.0 646.0,129.0 650.0,134.0 653.0,136.0 656.0,144.0 656.0,151.0 655.0,152.0 595.0,152.0 Z" fill="#000000" fill-rule="evenodd" /><path d="M 520.0,103.0 517.0,102.0 515.0,99.0 513.0,99.0 510.0,97.0 507.0,97.0 504.0,95.0 500.0,95.0 497.0,93.0 486.0,93.0 485.0,92.0 484.0,93.0 483.0,92.0 482.0,93.0 473.0,93.0 472.0,95.0 462.0,97.0 455.0,102.0 449.0,108.0 449.0,110.0 447.0,111.0 444.0,115.0 443.0,114.0 443.0,96.0 409.0,96.0 409.0,235.0 445.0,235.0 445.0,153.0 446.0,152.0 446.0,145.0 448.0,141.0 448.0,138.0 449.0,136.0 451.0,135.0 452.0,132.0 459.0,127.0 460.0,125.0 467.0,124.0 468.0,123.0 479.0,123.0 485.0,125.0 493.0,131.0 496.0,139.0 496.0,148.0 497.0,149.0 496.0,150.0 496.0,234.0 497.0,235.0 534.0,235.0 534.0,132.0 533.0,131.0 533.0,125.0 531.0,118.0 529.0,117.0 529.0,114.0 527.0,112.0 527.0,110.0 526.0,110.0 Z M 474.0,94.0 475.0,93.0 476.0,94.0 475.0,95.0 Z" fill="#000000" fill-rule="evenodd" /><path d="M 269.0,108.0 265.0,116.0 263.0,117.0 261.0,121.0 261.0,124.0 259.0,126.0 258.0,133.0 257.0,134.0 257.0,141.0 293.0,141.0 293.0,137.0 295.0,131.0 297.0,130.0 301.0,125.0 306.0,123.0 311.0,123.0 312.0,122.0 322.0,122.0 323.0,123.0 329.0,123.0 334.0,125.0 340.0,132.0 340.0,140.0 339.0,142.0 332.0,148.0 322.0,149.0 321.0,150.0 313.0,150.0 310.0,152.0 307.0,151.0 302.0,153.0 296.0,153.0 295.0,154.0 290.0,154.0 289.0,155.0 281.0,156.0 280.0,158.0 269.0,162.0 266.0,166.0 263.0,167.0 256.0,178.0 254.0,185.0 254.0,191.0 252.0,195.0 253.0,198.0 252.0,201.0 254.0,205.0 255.0,214.0 260.0,224.0 269.0,232.0 279.0,237.0 289.0,238.0 290.0,239.0 305.0,239.0 306.0,238.0 311.0,238.0 318.0,236.0 327.0,231.0 331.0,227.0 334.0,226.0 340.0,220.0 342.0,224.0 342.0,230.0 344.0,235.0 384.0,235.0 384.0,229.0 381.0,228.0 379.0,226.0 378.0,222.0 376.0,221.0 376.0,135.0 375.0,134.0 376.0,133.0 376.0,130.0 375.0,129.0 374.0,119.0 371.0,112.0 369.0,111.0 362.0,103.0 360.0,103.0 356.0,100.0 349.0,97.0 345.0,97.0 340.0,95.0 335.0,95.0 333.0,93.0 331.0,94.0 330.0,93.0 321.0,93.0 320.0,92.0 319.0,93.0 317.0,92.0 316.0,93.0 315.0,92.0 312.0,93.0 302.0,93.0 300.0,95.0 295.0,95.0 294.0,96.0 286.0,97.0 279.0,100.0 278.0,102.0 275.0,103.0 Z M 340.0,169.0 340.0,187.0 339.0,188.0 339.0,193.0 337.0,194.0 336.0,199.0 332.0,204.0 323.0,210.0 320.0,210.0 316.0,212.0 310.0,212.0 309.0,213.0 305.0,213.0 298.0,211.0 290.0,204.0 290.0,201.0 289.0,200.0 290.0,187.0 293.0,185.0 296.0,181.0 301.0,179.0 302.0,177.0 310.0,176.0 311.0,175.0 323.0,174.0 330.0,171.0 333.0,171.0 339.0,168.0 Z M 332.0,94.0 333.0,93.0 334.0,94.0 333.0,95.0 Z" fill="#000000" fill-rule="evenodd" /><path d="M 724.0,58.0 724.0,96.0 723.0,97.0 705.0,97.0 705.0,123.0 723.0,123.0 724.0,124.0 724.0,217.0 725.0,218.0 725.0,221.0 727.0,222.0 728.0,226.0 731.0,228.0 733.0,231.0 739.0,233.0 740.0,235.0 744.0,235.0 750.0,237.0 779.0,237.0 780.0,236.0 781.0,237.0 783.0,236.0 783.0,209.0 782.0,208.0 778.0,210.0 777.0,209.0 776.0,210.0 775.0,209.0 772.0,210.0 770.0,208.0 764.0,208.0 761.0,206.0 761.0,203.0 760.0,202.0 760.0,124.0 761.0,123.0 783.0,123.0 783.0,97.0 761.0,97.0 760.0,96.0 760.0,58.0 Z M 769.0,209.0 770.0,208.0 771.0,209.0 770.0,210.0 Z" fill="#000000" fill-rule="evenodd" /><path d="M 191.0,47.0 190.0,48.0 190.0,234.0 191.0,235.0 226.0,235.0 227.0,234.0 227.0,47.0 Z" fill="#000000" fill-rule="evenodd" /><path d="M 133.0,52.0 123.0,50.0 122.0,48.0 115.0,48.0 114.0,47.0 21.0,47.0 21.0,234.0 22.0,235.0 60.0,235.0 60.0,169.0 61.0,168.0 104.0,168.0 105.0,166.0 106.0,168.0 108.0,168.0 109.0,166.0 124.0,165.0 125.0,164.0 132.0,163.0 134.0,162.0 135.0,160.0 136.0,161.0 138.0,159.0 143.0,157.0 155.0,146.0 155.0,144.0 159.0,136.0 159.0,133.0 161.0,131.0 160.0,129.0 162.0,128.0 162.0,123.0 163.0,122.0 163.0,92.0 162.0,91.0 162.0,87.0 159.0,82.0 158.0,76.0 151.0,65.0 149.0,64.0 144.0,58.0 138.0,56.0 Z M 62.0,79.0 95.0,79.0 100.0,81.0 110.0,82.0 115.0,85.0 117.0,85.0 124.0,97.0 124.0,117.0 120.0,125.0 115.0,130.0 105.0,134.0 97.0,134.0 96.0,135.0 95.0,134.0 61.0,134.0 60.0,133.0 60.0,82.0 Z" fill="#000000" fill-rule="evenodd" /><path d="M 978.0,8.0 977.0,9.0 976.0,8.0 972.0,11.0 972.0,12.0 975.0,10.0 976.0,11.0 973.0,16.0 970.0,15.0 968.0,16.0 968.0,19.0 970.0,21.0 968.0,22.0 969.0,22.0 970.0,24.0 969.0,25.0 965.0,25.0 966.0,25.0 967.0,27.0 968.0,26.0 969.0,29.0 972.0,31.0 971.0,32.0 972.0,35.0 971.0,36.0 968.0,36.0 967.0,35.0 968.0,33.0 967.0,30.0 966.0,32.0 964.0,31.0 964.0,34.0 966.0,36.0 962.0,38.0 962.0,44.0 964.0,44.0 969.0,47.0 972.0,46.0 974.0,51.0 973.0,52.0 973.0,60.0 974.0,61.0 970.0,64.0 972.0,65.0 968.0,67.0 962.0,83.0 967.0,87.0 970.0,87.0 971.0,86.0 968.0,84.0 967.0,81.0 969.0,76.0 975.0,68.0 979.0,55.0 985.0,60.0 986.0,85.0 991.0,84.0 992.0,82.0 993.0,83.0 994.0,82.0 994.0,80.0 991.0,80.0 989.0,77.0 990.0,76.0 990.0,73.0 989.0,72.0 990.0,69.0 989.0,66.0 990.0,65.0 990.0,57.0 989.0,57.0 988.0,55.0 987.0,55.0 988.0,56.0 987.0,57.0 984.0,55.0 984.0,53.0 985.0,52.0 986.0,53.0 986.0,52.0 984.0,51.0 985.0,50.0 983.0,49.0 984.0,48.0 981.0,46.0 981.0,41.0 982.0,40.0 981.0,41.0 979.0,39.0 980.0,36.0 982.0,38.0 984.0,38.0 986.0,40.0 985.0,41.0 987.0,41.0 992.0,37.0 993.0,38.0 993.0,41.0 992.0,34.0 991.0,34.0 990.0,36.0 988.0,36.0 986.0,33.0 986.0,23.0 987.0,22.0 988.0,24.0 989.0,24.0 991.0,20.0 993.0,21.0 992.0,19.0 992.0,14.0 988.0,11.0 985.0,14.0 984.0,13.0 985.0,17.0 982.0,18.0 980.0,16.0 981.0,13.0 Z M 988.0,62.0 989.0,61.0 990.0,63.0 989.0,64.0 Z M 986.0,60.0 988.0,62.0 986.0,65.0 985.0,64.0 985.0,61.0 Z M 973.0,60.0 974.0,59.0 975.0,60.0 974.0,61.0 Z M 985.0,58.0 988.0,57.0 989.0,58.0 989.0,61.0 988.0,62.0 986.0,60.0 987.0,59.0 Z M 982.0,51.0 983.0,52.0 982.0,55.0 981.0,54.0 Z M 979.0,49.0 980.0,50.0 979.0,53.0 977.0,51.0 Z M 973.0,47.0 977.0,44.0 979.0,47.0 980.0,45.0 983.0,50.0 981.0,52.0 979.0,49.0 978.0,50.0 977.0,48.0 974.0,48.0 Z M 971.0,43.0 972.0,42.0 973.0,44.0 972.0,45.0 Z M 963.0,38.0 964.0,37.0 966.0,38.0 965.0,39.0 Z M 972.0,37.0 973.0,36.0 974.0,37.0 973.0,38.0 Z M 965.0,34.0 966.0,33.0 967.0,34.0 966.0,35.0 Z M 966.0,33.0 967.0,32.0 968.0,33.0 967.0,34.0 Z M 975.0,30.0 976.0,31.0 974.0,35.0 973.0,34.0 973.0,31.0 Z M 983.0,28.0 984.0,27.0 985.0,28.0 984.0,29.0 Z M 970.0,28.0 971.0,27.0 972.0,28.0 971.0,29.0 Z M 974.0,27.0 975.0,26.0 977.0,29.0 975.0,30.0 Z M 976.0,26.0 977.0,25.0 978.0,27.0 977.0,28.0 Z M 968.0,26.0 969.0,25.0 970.0,26.0 969.0,27.0 Z M 977.0,25.0 978.0,23.0 980.0,24.0 978.0,26.0 Z M 976.0,22.0 977.0,23.0 976.0,26.0 975.0,25.0 Z M 982.0,20.0 983.0,19.0 984.0,20.0 983.0,21.0 Z M 973.0,19.0 974.0,21.0 972.0,22.0 971.0,21.0 Z M 984.0,21.0 984.0,19.0 986.0,18.0 987.0,20.0 985.0,22.0 Z M 982.0,18.0 983.0,19.0 980.0,21.0 979.0,20.0 Z M 976.0,19.0 977.0,18.0 978.0,20.0 977.0,21.0 Z M 973.0,19.0 974.0,18.0 975.0,19.0 974.0,20.0 Z M 990.0,18.0 991.0,17.0 992.0,18.0 991.0,19.0 Z M 979.0,18.0 980.0,17.0 981.0,18.0 980.0,19.0 Z M 977.0,16.0 978.0,15.0 979.0,16.0 978.0,17.0 Z M 986.0,15.0 987.0,14.0 991.0,17.0 988.0,18.0 Z M 978.0,15.0 979.0,14.0 980.0,15.0 979.0,16.0 Z" fill="#000000" fill-rule="evenodd" /></svg>